<svg width="144" height="43" viewBox="0 0 144 43" fill="none" xmlns="http://www.w3.org/2000/svg">
<path d="M0 21.5C0 9.62588 9.62588 0 21.5 0C33.3741 0 43 9.62588 43 21.5C43 33.3741 33.3741 43 21.5 43C9.62588 43 0 33.3741 0 21.5Z" fill="url(#paint0_linear_1434_13526)"/>
<path d="M57.74 28C55.68 28 54.56 27.04 54.56 24.78V19.9H53.1V17.6H54.56V15.5L57.26 15.22V17.6H59.46V19.9H57.26V24.64C57.26 25.3 57.58 25.6 58.1 25.6H59.22V28H57.74ZM60.3625 28V13.4H63.0625V19.04C63.6225 17.92 64.6425 17.36 66.2025 17.36C68.4425 17.36 70.1625 19.02 70.1625 21.64V28H67.4625V22.3C67.4625 20.5 66.5625 19.72 65.2225 19.72C64.0825 19.72 63.0625 20.5 63.0625 22.3V28H60.3625ZM76.6511 28.26C73.4311 28.26 71.2711 25.82 71.2711 22.82C71.2711 19.82 73.5311 17.34 76.6511 17.34C79.7711 17.34 81.9311 19.82 81.9311 22.82C81.9311 23.12 81.9111 23.44 81.8511 23.78H74.0711C74.3711 25 75.2911 25.86 76.6511 25.86C77.8111 25.86 78.7111 25.26 79.1911 24.46L81.2911 26.04C80.4511 27.34 78.7111 28.26 76.6511 28.26ZM74.0711 21.76H79.2111C78.9111 20.6 77.9311 19.66 76.6111 19.66C75.3311 19.66 74.3711 20.52 74.0711 21.76ZM92.2019 28.26C90.3419 28.26 89.4019 27.48 88.8419 26.3V28H86.2219V13.4H88.9219V19.2C89.4819 18.1 90.4219 17.38 92.2019 17.38C95.0619 17.38 97.3419 19.84 97.3419 22.84C97.3419 25.84 95.0619 28.26 92.2019 28.26ZM88.8419 22.84C88.8419 24.46 89.9819 25.82 91.7619 25.82C93.4819 25.82 94.6419 24.4 94.6419 22.82C94.6419 21.2 93.4819 19.82 91.7619 19.82C89.9819 19.82 88.8419 21.22 88.8419 22.84ZM98.5461 28V17.6H101.166V19.58C101.526 18.08 102.586 17.26 104.386 17.36V19.9H104.006C102.446 19.9 101.246 20.94 101.246 22.68V28H98.5461ZM109.517 28.26C106.657 28.26 104.377 25.84 104.377 22.84C104.377 19.84 106.657 17.38 109.517 17.38C111.317 17.38 112.257 18.12 112.817 19.24V17.6H115.497V28H112.877V26.3C112.317 27.48 111.377 28.26 109.517 28.26ZM107.077 22.82C107.077 24.4 108.237 25.82 109.957 25.82C111.737 25.82 112.877 24.46 112.877 22.84C112.877 21.22 111.737 19.82 109.957 19.82C108.237 19.82 107.077 21.2 107.077 22.82ZM117.101 28V17.6H119.761V19.12C120.301 17.96 121.341 17.36 122.941 17.36C125.181 17.36 126.901 19.02 126.901 21.64V28H124.201V22.3C124.201 20.5 123.301 19.72 121.961 19.72C120.821 19.72 119.801 20.5 119.801 22.3V28H117.101ZM133.149 28.26C130.289 28.26 128.009 25.84 128.009 22.84C128.009 19.84 130.289 17.38 133.149 17.38C134.929 17.38 135.869 18.1 136.429 19.2V13.4H139.129V28H136.509V26.3C135.949 27.48 135.009 28.26 133.149 28.26ZM130.709 22.82C130.709 24.4 131.869 25.82 133.589 25.82C135.369 25.82 136.509 24.46 136.509 22.84C136.509 21.22 135.369 19.82 133.589 19.82C131.869 19.82 130.709 21.2 130.709 22.82ZM142.174 28.26C141.134 28.26 140.374 27.46 140.374 26.5C140.374 25.56 141.134 24.76 142.174 24.76C143.214 24.76 143.954 25.56 143.954 26.5C143.954 27.46 143.214 28.26 142.174 28.26Z" fill="#383838"/>
<defs>
<linearGradient id="paint0_linear_1434_13526" x1="-5" y1="3" x2="39.5" y2="40" gradientUnits="userSpaceOnUse">
<stop stop-color="#F8EAFF"/>
<stop offset="1" stop-color="#CDCDCD" stop-opacity="0"/>
</linearGradient>
</defs>
</svg>
