<svg width="91" height="91" viewBox="0 0 91 91" fill="none" xmlns="http://www.w3.org/2000/svg">
<g clip-path="url(#clip0_2175_2098)">
<rect x="0.899414" y="0.175781" width="90" height="90" rx="45" fill="#BEBEBE"/>
<path d="M45.8991 62.0091C56.4845 62.0091 65.0658 53.4279 65.0658 42.8424C65.0658 32.257 56.4845 23.6758 45.8991 23.6758C35.3136 23.6758 26.7324 32.257 26.7324 42.8424C26.7324 53.4279 35.3136 62.0091 45.8991 62.0091Z" fill="#393939"/>
<path d="M76.5658 92.6758C76.5658 84.5425 73.3348 76.7423 67.5837 70.9912C61.8326 65.2401 54.0324 62.0091 45.8991 62.0091C37.7658 62.0091 29.9656 65.2401 24.2145 70.9912C18.4634 76.7423 15.2324 84.5425 15.2324 92.6758" fill="#393939"/>
</g>
<defs>
<clipPath id="clip0_2175_2098">
<rect x="0.899414" y="0.175781" width="90" height="90" rx="45" fill="white"/>
</clipPath>
</defs>
</svg>
